<?xml version="1.0" encoding="UTF-8"?>
<svg id="Layer_2" data-name="Layer 2" xmlns="http://www.w3.org/2000/svg" viewBox="0 0 289.08 122.67">
  <defs>
    <style>
      .cls-1 {
        fill: #fff;
      }

      .cls-2 {
        fill: #0081ca;
      }

      .cls-3 {
        fill: #032b4d;
      }

      .cls-4 {
        fill: #e6e6e6;
      }
    </style>
  </defs>
  <g id="Layer_1-2" data-name="Layer 1">
    <g>
      <g>
        <g>
          <rect class="cls-4" width="289.08" height="122.67"/>
          <g>
            <rect class="cls-2" x="25.93" y="25.87" width="70.93" height="70.93"/>
            <rect class="cls-3" x="109.07" y="25.87" width="70.93" height="70.93"/>
            <rect class="cls-1" x="192.21" y="25.87" width="70.93" height="70.93"/>
          </g>
        </g>
        <g>
          <path class="cls-3" d="M111.46,111.03c-.22.4-.57.73-1.03.98s-1.04.37-1.73.37h-1.27v3.02h-2.05v-8.42h3.32c.67,0,1.24.12,1.7.35.46.23.81.55,1.04.96.23.41.35.88.35,1.4,0,.49-.11.93-.34,1.34ZM109.42,110.47c.19-.18.29-.44.29-.78s-.1-.6-.29-.78c-.19-.18-.48-.28-.88-.28h-1.12v2.11h1.12c.39,0,.68-.09.88-.28Z"/>
          <path class="cls-3" d="M114.14,115.08c-.52-.28-.94-.68-1.24-1.2-.3-.52-.45-1.13-.45-1.82s.15-1.29.46-1.82c.3-.52.72-.93,1.25-1.21.53-.28,1.12-.42,1.78-.42s1.25.14,1.78.42c.53.28.94.68,1.25,1.21s.46,1.13.46,1.82-.15,1.29-.46,1.82-.73.93-1.26,1.21c-.53.28-1.13.42-1.78.42s-1.25-.14-1.77-.42ZM116.91,113.29c.28-.29.41-.7.41-1.24s-.13-.95-.4-1.24c-.27-.29-.6-.43-.99-.43s-.73.14-1,.43c-.26.28-.4.7-.4,1.24s.13.95.39,1.24c.26.29.59.43.98.43s.73-.14,1-.43Z"/>
          <path class="cls-3" d="M123.39,108.9c.35-.19.76-.29,1.24-.29.55,0,1.05.14,1.5.42.45.28.8.68,1.06,1.2s.39,1.12.39,1.81-.13,1.29-.39,1.82-.61.93-1.06,1.21c-.45.28-.95.43-1.5.43-.46,0-.87-.1-1.23-.29s-.63-.44-.83-.74v4.13h-2.05v-9.89h2.05v.95c.2-.31.48-.56.83-.76ZM125.06,110.84c-.28-.29-.63-.44-1.05-.44s-.75.15-1.04.44c-.28.3-.43.7-.43,1.21s.14.92.43,1.21c.28.3.63.44,1.04.44s.76-.15,1.04-.45c.29-.3.43-.71.43-1.22s-.14-.91-.43-1.21Z"/>
          <path class="cls-3" d="M131.54,108.9c.35-.19.76-.29,1.24-.29.55,0,1.05.14,1.5.42.45.28.8.68,1.06,1.2s.39,1.12.39,1.81-.13,1.29-.39,1.82-.61.93-1.06,1.21c-.45.28-.95.43-1.5.43-.46,0-.87-.1-1.23-.29s-.63-.44-.83-.74v4.13h-2.05v-9.89h2.05v.95c.2-.31.48-.56.83-.76ZM133.21,110.84c-.28-.29-.63-.44-1.05-.44s-.75.15-1.04.44c-.28.3-.43.7-.43,1.21s.14.92.43,1.21c.28.3.63.44,1.04.44s.76-.15,1.04-.45c.29-.3.43-.71.43-1.22s-.14-.91-.43-1.21Z"/>
          <path class="cls-3" d="M136.95,107.69c-.23-.21-.34-.47-.34-.79s.11-.59.34-.8.52-.32.88-.32.64.11.87.32.34.48.34.8-.11.57-.34.79-.52.32-.87.32-.65-.11-.88-.32ZM138.86,108.71v6.7h-2.05v-6.7h2.05Z"/>
          <path class="cls-3" d="M146.3,109.4c.47.51.7,1.21.7,2.09v3.91h-2.04v-3.64c0-.45-.12-.8-.35-1.04-.23-.25-.54-.37-.94-.37s-.7.12-.94.37c-.23.25-.35.6-.35,1.04v3.64h-2.05v-6.7h2.05v.89c.21-.3.49-.53.84-.7.35-.17.75-.26,1.19-.26.78,0,1.41.25,1.88.76Z"/>
          <path class="cls-3" d="M149.6,115.2c-.46-.2-.82-.47-1.08-.82-.26-.35-.41-.74-.44-1.17h2.03c.02.23.13.42.32.56.19.14.43.22.71.22.26,0,.45-.05.59-.15.14-.1.21-.23.21-.39,0-.19-.1-.33-.3-.43-.2-.09-.52-.19-.97-.31-.48-.11-.88-.23-1.2-.35s-.6-.32-.83-.59c-.23-.27-.35-.63-.35-1.09,0-.38.11-.73.32-1.05.21-.32.52-.57.94-.75.41-.18.9-.28,1.47-.28.84,0,1.5.21,1.99.62.48.42.76.97.83,1.66h-1.9c-.03-.23-.13-.42-.31-.55-.17-.14-.4-.2-.68-.2-.24,0-.42.05-.55.14s-.19.22-.19.38c0,.19.1.34.31.43.2.1.52.19.95.29.5.13.9.25,1.21.38s.59.32.82.6c.24.28.36.65.37,1.11,0,.39-.11.74-.33,1.05-.22.31-.54.55-.95.73s-.89.26-1.43.26c-.58,0-1.1-.1-1.56-.3Z"/>
          <path class="cls-3" d="M163.16,106.98v1.64h-3.43v1.78h2.57v1.6h-2.57v3.41h-2.05v-8.42h5.48Z"/>
          <path class="cls-3" d="M165.51,115.08c-.52-.28-.94-.68-1.24-1.2-.3-.52-.45-1.13-.45-1.82s.15-1.29.46-1.82c.3-.52.72-.93,1.25-1.21.53-.28,1.12-.42,1.78-.42s1.25.14,1.78.42c.53.28.94.68,1.25,1.21s.46,1.13.46,1.82-.15,1.29-.46,1.82-.73.93-1.26,1.21c-.53.28-1.13.42-1.78.42s-1.25-.14-1.77-.42ZM168.29,113.29c.28-.29.41-.7.41-1.24s-.13-.95-.4-1.24c-.27-.29-.6-.43-.99-.43s-.73.14-1,.43c-.26.28-.4.7-.4,1.24s.13.95.39,1.24c.26.29.59.43.98.43s.73-.14,1-.43Z"/>
          <path class="cls-3" d="M177.84,109.4c.47.51.7,1.21.7,2.09v3.91h-2.04v-3.64c0-.45-.12-.8-.35-1.04-.23-.25-.54-.37-.94-.37s-.7.12-.94.37c-.23.25-.35.6-.35,1.04v3.64h-2.05v-6.7h2.05v.89c.21-.3.49-.53.84-.7.35-.17.75-.26,1.19-.26.78,0,1.41.25,1.88.76Z"/>
          <path class="cls-3" d="M183.7,113.66v1.74h-1.04c-.74,0-1.32-.18-1.74-.55s-.62-.96-.62-1.78v-2.66h-.82v-1.7h.82v-1.63h2.05v1.63h1.34v1.7h-1.34v2.69c0,.2.05.34.14.43.1.09.26.13.48.13h.73Z"/>
        </g>
        <g>
          <path class="cls-3" d="M115.31,9l-2.2,8.42h-2.48l-1.34-5.54-1.39,5.54h-2.48l-2.14-8.42h2.2l1.21,6.13,1.5-6.13h2.26l1.44,6.13,1.22-6.13h2.21Z"/>
          <path class="cls-3" d="M116.32,12.25c.26-.52.61-.92,1.06-1.2.45-.28.95-.42,1.5-.42.47,0,.89.1,1.24.29s.63.44.82.76v-.95h2.05v6.7h-2.05v-.95c-.2.31-.48.56-.83.76s-.77.29-1.24.29c-.54,0-1.04-.14-1.49-.43-.45-.28-.8-.69-1.06-1.21-.26-.52-.39-1.13-.39-1.82s.13-1.29.39-1.81ZM120.52,12.87c-.28-.3-.63-.44-1.04-.44s-.75.15-1.04.44c-.28.29-.43.69-.43,1.21s.14.92.43,1.22c.28.3.63.45,1.04.45s.75-.15,1.04-.44c.28-.3.43-.7.43-1.21s-.14-.92-.43-1.21Z"/>
          <path class="cls-3" d="M125.65,17.22c-.46-.2-.82-.47-1.08-.82-.26-.35-.41-.74-.44-1.17h2.03c.02.23.13.42.32.56.19.14.43.22.71.22.26,0,.45-.05.59-.15.14-.1.21-.23.21-.39,0-.19-.1-.33-.3-.43-.2-.09-.52-.19-.97-.31-.48-.11-.88-.23-1.2-.35s-.6-.32-.83-.59c-.23-.27-.35-.63-.35-1.09,0-.38.11-.73.32-1.05.21-.32.52-.57.94-.75.41-.18.9-.28,1.47-.28.84,0,1.5.21,1.99.62.48.42.76.97.83,1.66h-1.9c-.03-.23-.13-.42-.31-.55-.17-.14-.4-.2-.68-.2-.24,0-.42.05-.55.14s-.19.22-.19.38c0,.19.1.34.31.43.2.1.52.19.95.29.5.13.9.25,1.21.38s.59.32.82.6c.24.28.36.65.37,1.11,0,.39-.11.74-.33,1.05-.22.31-.54.55-.95.73s-.89.26-1.43.26c-.58,0-1.1-.1-1.56-.3Z"/>
          <path class="cls-3" d="M134.91,15.69v1.74h-1.04c-.74,0-1.32-.18-1.74-.55s-.62-.96-.62-1.78v-2.66h-.82v-1.7h.82v-1.63h2.05v1.63h1.34v1.7h-1.34v2.69c0,.2.05.34.14.43.1.09.26.13.48.13h.73Z"/>
          <path class="cls-3" d="M142.33,14.57h-4.64c.03.42.17.73.4.95s.53.33.87.33c.51,0,.87-.22,1.07-.65h2.18c-.11.44-.31.84-.61,1.19-.29.35-.66.63-1.1.83-.44.2-.93.3-1.48.3-.66,0-1.24-.14-1.75-.42-.51-.28-.91-.68-1.2-1.2s-.43-1.13-.43-1.82.14-1.3.43-1.82c.28-.52.68-.92,1.19-1.2.51-.28,1.1-.42,1.76-.42s1.22.14,1.73.41c.5.27.9.66,1.18,1.16.28.5.43,1.09.43,1.76,0,.19-.01.39-.04.6ZM140.27,13.43c0-.35-.12-.63-.36-.84-.24-.21-.54-.31-.9-.31s-.63.1-.87.3c-.24.2-.38.48-.44.85h2.57Z"/>
          <path class="cls-3" d="M151.47,9v1.64h-3.43v1.78h2.57v1.6h-2.57v3.41h-2.05v-8.42h5.48Z"/>
          <path class="cls-3" d="M152.54,12.25c.26-.52.61-.92,1.06-1.2.45-.28.95-.42,1.5-.42.47,0,.89.1,1.24.29s.63.44.82.76v-.95h2.05v6.7h-2.05v-.95c-.2.31-.48.56-.83.76s-.77.29-1.24.29c-.54,0-1.04-.14-1.49-.43-.45-.28-.8-.69-1.06-1.21-.26-.52-.39-1.13-.39-1.82s.13-1.29.39-1.81ZM156.74,12.87c-.28-.3-.63-.44-1.04-.44s-.75.15-1.04.44c-.28.29-.43.69-.43,1.21s.14.92.43,1.22c.28.3.63.45,1.04.45s.75-.15,1.04-.44c.28-.3.43-.7.43-1.21s-.14-.92-.43-1.21Z"/>
          <path class="cls-3" d="M162.75,8.55v8.88h-2.05v-8.88h2.05Z"/>
          <path class="cls-3" d="M164.26,12.25c.28-.52.68-.92,1.19-1.2.51-.28,1.09-.42,1.75-.42.84,0,1.54.22,2.11.66.56.44.93,1.06,1.11,1.86h-2.18c-.18-.51-.54-.77-1.07-.77-.38,0-.68.15-.9.44-.22.29-.34.71-.34,1.25s.11.96.34,1.25c.22.29.52.44.9.44.53,0,.88-.26,1.07-.77h2.18c-.18.78-.55,1.4-1.12,1.85-.57.45-1.27.67-2.1.67-.66,0-1.24-.14-1.75-.42-.51-.28-.9-.68-1.19-1.2-.28-.52-.43-1.13-.43-1.82s.14-1.3.43-1.82Z"/>
          <path class="cls-3" d="M172.78,17.1c-.52-.28-.94-.68-1.24-1.2-.3-.52-.45-1.13-.45-1.82s.15-1.29.46-1.82c.3-.52.72-.93,1.25-1.21.53-.28,1.12-.42,1.78-.42s1.25.14,1.78.42c.53.28.94.68,1.25,1.21s.46,1.13.46,1.82-.15,1.29-.46,1.82-.73.93-1.26,1.21c-.53.28-1.13.42-1.78.42s-1.25-.14-1.77-.42ZM175.55,15.31c.28-.29.41-.7.41-1.24s-.13-.95-.4-1.24c-.27-.29-.6-.43-.99-.43s-.73.14-1,.43c-.26.28-.4.7-.4,1.24s.13.95.39,1.24c.26.29.59.43.98.43s.73-.14,1-.43Z"/>
          <path class="cls-3" d="M185.1,11.42c.47.51.7,1.21.7,2.09v3.91h-2.04v-3.64c0-.45-.12-.8-.35-1.04-.23-.25-.54-.37-.94-.37s-.7.12-.94.37c-.23.25-.35.6-.35,1.04v3.64h-2.05v-6.7h2.05v.89c.21-.3.49-.53.84-.7.35-.17.75-.26,1.19-.26.78,0,1.41.25,1.88.76Z"/>
        </g>
      </g>
      <g>
        <g>
          <path class="cls-1" d="M45.53,59.87l-.34,1.57h1.44v1.85h-1.84l-.4,1.84h-1.92l.4-1.84h-1.99l-.4,1.84h-1.92l.4-1.84h-1.78v-1.85h2.17l.34-1.57h-1.74v-1.85h2.12l.38-1.78h1.92l-.38,1.78h1.99l.38-1.78h1.92l-.38,1.78h1.49v1.85h-1.87ZM43.61,59.87h-1.99l-.34,1.57h1.99l.34-1.57Z"/>
          <path class="cls-1" d="M49.14,57.37c.53-.79,1.39-1.19,2.57-1.19s2.04.4,2.57,1.19c.53.79.8,1.88.8,3.25s-.27,2.48-.8,3.28c-.53.79-1.39,1.19-2.57,1.19s-2.04-.4-2.57-1.19-.8-1.88-.8-3.28.27-2.46.8-3.25ZM52.8,58.76c-.18-.44-.54-.65-1.09-.65s-.92.22-1.09.65c-.18.44-.26,1.06-.26,1.87,0,.54.03.99.1,1.35s.19.64.39.86c.2.22.49.33.87.33s.67-.11.87-.33c.2-.22.33-.51.39-.86s.1-.81.1-1.35c0-.81-.09-1.43-.26-1.87Z"/>
          <path class="cls-1" d="M56.96,57.37c.53-.79,1.39-1.19,2.57-1.19s2.04.4,2.57,1.19c.53.79.8,1.88.8,3.25s-.27,2.48-.8,3.28c-.53.79-1.39,1.19-2.57,1.19s-2.04-.4-2.57-1.19-.8-1.88-.8-3.28.27-2.46.8-3.25ZM60.63,58.76c-.18-.44-.54-.65-1.09-.65s-.92.22-1.09.65c-.18.44-.26,1.06-.26,1.87,0,.54.03.99.1,1.35s.19.64.39.86c.2.22.49.33.87.33s.67-.11.87-.33c.2-.22.33-.51.39-.86s.1-.81.1-1.35c0-.81-.09-1.43-.26-1.87Z"/>
          <path class="cls-1" d="M64.3,58.54c0-.43.11-.83.34-1.18s.56-.64,1.02-.85,1.02-.32,1.68-.32,1.22.11,1.67.32c.45.21.79.5,1.01.85.22.36.34.75.34,1.18s-.1.81-.31,1.13-.48.57-.82.76c.43.21.76.49,1,.86.23.36.35.79.35,1.28,0,.57-.14,1.06-.43,1.47-.29.41-.68.73-1.17.94-.49.22-1.04.32-1.64.32s-1.15-.11-1.64-.32c-.49-.22-.88-.53-1.17-.94-.29-.41-.43-.9-.43-1.47,0-.5.12-.93.35-1.29.23-.36.56-.65.98-.85-.75-.4-1.13-1.03-1.13-1.88ZM66.42,61.62c-.23.2-.35.49-.35.85,0,.34.11.61.34.83s.53.32.92.32.69-.11.91-.32.33-.49.33-.83-.11-.63-.34-.84c-.23-.21-.53-.31-.89-.31s-.68.1-.91.31ZM68.09,58.09c-.19-.18-.44-.27-.75-.27s-.56.09-.75.28c-.19.18-.28.44-.28.77s.1.56.29.74c.19.18.44.27.74.27s.55-.09.74-.28c.19-.18.29-.43.29-.74,0-.33-.09-.58-.28-.76Z"/>
          <path class="cls-1" d="M71.55,58.27v-1.91h3.32v8.76h-2.14v-6.85h-1.19Z"/>
          <path class="cls-1" d="M76.5,59.96c.28-.52.68-.92,1.19-1.2.51-.28,1.09-.42,1.75-.42.84,0,1.54.22,2.11.66.56.44.93,1.06,1.11,1.86h-2.18c-.18-.51-.54-.77-1.07-.77-.38,0-.68.15-.9.44-.22.29-.34.71-.34,1.25s.11.96.34,1.25c.22.29.52.44.9.44.53,0,.88-.26,1.07-.77h2.18c-.18.78-.55,1.4-1.12,1.85-.57.45-1.27.67-2.1.67-.66,0-1.24-.14-1.75-.42-.51-.28-.9-.68-1.19-1.2-.28-.52-.43-1.13-.43-1.82s.14-1.3.43-1.82Z"/>
          <path class="cls-1" d="M83.72,59.96c.26-.52.61-.92,1.06-1.2.45-.28.95-.42,1.5-.42.47,0,.89.1,1.24.29s.63.44.82.76v-.95h2.05v6.7h-2.05v-.95c-.2.31-.48.56-.83.76s-.77.29-1.24.29c-.54,0-1.04-.14-1.49-.43-.45-.28-.8-.69-1.06-1.21-.26-.52-.39-1.13-.39-1.82s.13-1.29.39-1.81ZM87.92,60.57c-.28-.3-.63-.44-1.04-.44s-.75.15-1.04.44c-.28.29-.43.69-.43,1.21s.14.92.43,1.22c.28.3.63.45,1.04.45s.75-.15,1.04-.44c.28-.3.43-.7.43-1.21s-.14-.92-.43-1.21Z"/>
        </g>
        <g>
          <path class="cls-1" d="M124.86,59.92l-.34,1.57h1.44v1.85h-1.84l-.4,1.84h-1.92l.4-1.84h-1.99l-.4,1.84h-1.92l.4-1.84h-1.78v-1.85h2.17l.34-1.57h-1.74v-1.85h2.12l.38-1.78h1.92l-.38,1.78h1.99l.38-1.78h1.92l-.38,1.78h1.49v1.85h-1.87ZM122.94,59.92h-1.99l-.34,1.57h1.99l.34-1.57Z"/>
          <path class="cls-1" d="M128.47,57.42c.53-.79,1.39-1.19,2.57-1.19s2.04.4,2.57,1.19c.53.79.8,1.88.8,3.25s-.27,2.48-.8,3.28c-.53.79-1.39,1.19-2.57,1.19s-2.04-.4-2.57-1.19-.8-1.88-.8-3.28.27-2.46.8-3.25ZM132.13,58.81c-.18-.44-.54-.65-1.09-.65s-.92.22-1.09.65c-.18.44-.26,1.06-.26,1.87,0,.54.03.99.1,1.35s.19.64.39.86c.2.22.49.33.87.33s.67-.11.87-.33c.2-.22.33-.51.39-.86s.1-.81.1-1.35c0-.81-.09-1.43-.26-1.87Z"/>
          <path class="cls-1" d="M136.4,56.91c.53-.46,1.24-.7,2.15-.7.6,0,1.11.1,1.54.31.43.21.75.49.97.85.22.36.33.76.33,1.21,0,.53-.13.96-.4,1.29-.26.33-.57.56-.92.68v.05c.46.15.82.4,1.08.76.26.35.4.8.4,1.36,0,.5-.11.93-.34,1.31s-.56.68-1,.89c-.44.22-.95.32-1.55.32-.96,0-1.73-.24-2.3-.71-.57-.47-.87-1.18-.91-2.14h1.99c0,.35.11.63.3.83s.47.31.84.31c.31,0,.55-.09.73-.27.17-.18.26-.42.26-.71,0-.38-.12-.66-.37-.83-.24-.17-.63-.26-1.17-.26h-.38v-1.67h.38c.41,0,.74-.07.99-.21.25-.14.38-.39.38-.75,0-.29-.08-.51-.24-.67s-.38-.24-.66-.24c-.3,0-.53.09-.68.28-.15.18-.23.41-.26.68h-2c.03-.86.31-1.52.84-1.98Z"/>
          <path class="cls-1" d="M143.05,63.23c.78-.65,1.4-1.18,1.85-1.6s.83-.85,1.15-1.31.47-.9.47-1.33c0-.33-.08-.58-.23-.77-.15-.18-.38-.28-.68-.28s-.54.11-.71.34c-.17.23-.26.55-.26.97h-1.98c.02-.68.16-1.25.44-1.7.28-.46.64-.79,1.09-1.01.45-.22.95-.32,1.51-.32.95,0,1.67.24,2.15.73.48.49.73,1.12.73,1.91,0,.86-.29,1.65-.88,2.38s-1.33,1.45-2.23,2.14h3.24v1.67h-6.02v-1.52c.27-.22.4-.32.37-.3Z"/>
          <path class="cls-1" d="M152.69,58.67c.36-.19.77-.29,1.24-.29.55,0,1.05.14,1.5.42.45.28.8.68,1.06,1.2s.39,1.12.39,1.81-.13,1.29-.39,1.82-.61.93-1.06,1.21c-.45.28-.95.43-1.5.43-.47,0-.88-.09-1.24-.28s-.63-.44-.83-.75v.94h-2.05v-8.88h2.05v3.13c.19-.31.47-.56.83-.76ZM154.36,60.61c-.28-.29-.63-.44-1.05-.44s-.75.15-1.04.44c-.28.3-.43.7-.43,1.21s.14.92.43,1.21c.28.3.63.44,1.04.44s.76-.15,1.04-.45c.29-.3.43-.71.43-1.22s-.14-.91-.43-1.21Z"/>
          <path class="cls-1" d="M157.8,63.61v-1.66l3.79-5.42h2.29v5.3h.98v1.78h-.98v1.56h-2.05v-1.56h-4.03ZM161.98,58.79l-2.02,3.05h2.02v-3.05Z"/>
          <path class="cls-1" d="M166.06,60c.26-.52.61-.92,1.06-1.2.45-.28.95-.42,1.5-.42.44,0,.84.09,1.21.28.36.18.65.43.86.74v-3.11h2.05v8.88h-2.05v-.96c-.19.32-.47.58-.82.77s-.77.29-1.24.29c-.55,0-1.05-.14-1.5-.43-.45-.28-.8-.69-1.06-1.21-.26-.52-.39-1.13-.39-1.82s.13-1.29.39-1.81ZM170.26,60.61c-.28-.3-.63-.44-1.04-.44s-.75.15-1.04.44c-.28.29-.43.69-.43,1.21s.14.92.43,1.22c.28.3.63.45,1.04.45s.75-.15,1.04-.44c.28-.3.43-.7.43-1.21s-.14-.92-.43-1.21Z"/>
        </g>
        <g>
          <path class="cls-3" d="M217.86,60.19l-.34,1.57h1.44v1.85h-1.84l-.4,1.84h-1.92l.4-1.84h-1.99l-.4,1.84h-1.92l.4-1.84h-1.78v-1.85h2.17l.34-1.57h-1.74v-1.85h2.12l.38-1.78h1.92l-.38,1.78h1.99l.38-1.78h1.92l-.38,1.78h1.49v1.85h-1.87ZM215.94,60.19h-1.99l-.34,1.57h1.99l.34-1.57Z"/>
          <path class="cls-3" d="M224.23,60.45h-1.1v4.99h-2.05v-4.99h-.74v-1.7h.74v-.19c0-.82.24-1.45.71-1.88.47-.43,1.16-.64,2.08-.64.15,0,.26,0,.34.01v1.74c-.39-.02-.67.03-.83.17-.16.14-.24.38-.24.73v.06h1.1v1.7Z"/>
          <path class="cls-3" d="M228.55,60.45h-1.1v4.99h-2.05v-4.99h-.74v-1.7h.74v-.19c0-.82.24-1.45.71-1.88.47-.43,1.16-.64,2.08-.64.15,0,.26,0,.34.01v1.74c-.39-.02-.67.03-.83.17-.16.14-.24.38-.24.73v.06h1.1v1.7Z"/>
          <path class="cls-3" d="M232.87,60.45h-1.1v4.99h-2.05v-4.99h-.74v-1.7h.74v-.19c0-.82.24-1.45.71-1.88.47-.43,1.16-.64,2.08-.64.15,0,.26,0,.34.01v1.74c-.39-.02-.67.03-.83.17-.16.14-.24.38-.24.73v.06h1.1v1.7Z"/>
          <path class="cls-3" d="M237.19,60.45h-1.1v4.99h-2.05v-4.99h-.74v-1.7h.74v-.19c0-.82.24-1.45.71-1.88.47-.43,1.16-.64,2.08-.64.15,0,.26,0,.34.01v1.74c-.39-.02-.67.03-.83.17-.16.14-.24.38-.24.73v.06h1.1v1.7Z"/>
          <path class="cls-3" d="M241.51,60.45h-1.1v4.99h-2.05v-4.99h-.74v-1.7h.74v-.19c0-.82.24-1.45.71-1.88.47-.43,1.16-.64,2.08-.64.15,0,.26,0,.34.01v1.74c-.39-.02-.67.03-.83.17-.16.14-.24.38-.24.73v.06h1.1v1.7Z"/>
          <path class="cls-3" d="M245.83,60.45h-1.1v4.99h-2.05v-4.99h-.74v-1.7h.74v-.19c0-.82.24-1.45.71-1.88.47-.43,1.16-.64,2.08-.64.15,0,.26,0,.34.01v1.74c-.39-.02-.67.03-.83.17-.16.14-.24.38-.24.73v.06h1.1v1.7Z"/>
        </g>
      </g>
    </g>
  </g>
</svg>